<svg width="28" height="28" viewBox="0 0 28 28" fill="none" xmlns="http://www.w3.org/2000/svg">
<path d="M9.33337 12.8335H5.83337C3.90021 12.8335 2.33337 11.2667 2.33337 9.3335V5.8335C2.33337 3.90033 3.90021 2.3335 5.83337 2.3335H9.33337C11.2665 2.3335 12.8334 3.90033 12.8334 5.8335V9.3335C12.8334 11.2667 11.2665 12.8335 9.33337 12.8335Z" fill="#3D5AFE"/>
<path opacity="0.35" d="M22.1666 12.8335H18.6666C16.7335 12.8335 15.1666 11.2667 15.1666 9.3335V5.8335C15.1666 3.90033 16.7335 2.3335 18.6666 2.3335H22.1666C24.0998 2.3335 25.6666 3.90033 25.6666 5.8335V9.3335C25.6666 11.2667 24.0998 12.8335 22.1666 12.8335Z" fill="#3D5AFE"/>
<path opacity="0.35" d="M9.33337 25.6665H5.83337C3.90021 25.6665 2.33337 24.0997 2.33337 22.1665V18.6665C2.33337 16.7333 3.90021 15.1665 5.83337 15.1665H9.33337C11.2665 15.1665 12.8334 16.7333 12.8334 18.6665V22.1665C12.8334 24.0997 11.2665 25.6665 9.33337 25.6665Z" fill="#3D5AFE"/>
<path opacity="0.35" d="M22.1666 25.6665H18.6666C16.7335 25.6665 15.1666 24.0997 15.1666 22.1665V18.6665C15.1666 16.7333 16.7335 15.1665 18.6666 15.1665H22.1666C24.0998 15.1665 25.6666 16.7333 25.6666 18.6665V22.1665C25.6666 24.0997 24.0998 25.6665 22.1666 25.6665Z" fill="#3D5AFE"/>
<path d="M5.83325 16.9167C5.83325 17.8851 5.05158 18.6667 4.08325 18.6667C3.37158 18.6667 2.75325 18.2351 2.49658 17.6284C2.83492 16.5317 3.69825 15.6684 4.79492 15.3301C5.40158 15.5867 5.83325 16.2051 5.83325 16.9167Z" fill="#3D5AFE"/>
<path d="M12.67 17.6284C12.4134 18.2351 11.795 18.6667 11.0834 18.6667C10.115 18.6667 9.33337 17.8851 9.33337 16.9167C9.33337 16.2051 9.76504 15.5867 10.3717 15.3301C11.4684 15.6684 12.3317 16.5317 12.67 17.6284Z" fill="#3D5AFE"/>
<path d="M5.83325 23.9165C5.83325 24.6282 5.40158 25.2465 4.79492 25.5032C3.69825 25.1648 2.83492 24.3015 2.49658 23.2048C2.75325 22.5982 3.37158 22.1665 4.08325 22.1665C5.05158 22.1665 5.83325 22.9482 5.83325 23.9165Z" fill="#3D5AFE"/>
<path d="M12.67 23.2048C12.3317 24.3015 11.4684 25.1648 10.3717 25.5032C9.76504 25.2465 9.33337 24.6282 9.33337 23.9165C9.33337 22.9482 10.115 22.1665 11.0834 22.1665C11.795 22.1665 12.4134 22.5982 12.67 23.2048Z" fill="#3D5AFE"/>
<path d="M7.58337 22.1665C8.54987 22.1665 9.33337 21.383 9.33337 20.4165C9.33337 19.45 8.54987 18.6665 7.58337 18.6665C6.61688 18.6665 5.83337 19.45 5.83337 20.4165C5.83337 21.383 6.61688 22.1665 7.58337 22.1665Z" fill="#3D5AFE"/>
<path d="M25.3283 17.1615L17.1617 25.3282C16.4383 24.9782 15.855 24.3949 15.505 23.6715L23.6717 15.5049C24.395 15.8549 24.9783 16.4382 25.3283 17.1615Z" fill="#3D5AFE"/>
<path d="M20.3233 15.1665L15.1666 20.3232V18.6665C15.1666 16.7298 16.73 15.1665 18.6666 15.1665H20.3233Z" fill="#3D5AFE"/>
<path d="M25.6667 20.5098V22.1664C25.6667 24.1031 24.1033 25.6664 22.1667 25.6664H20.51L25.6667 20.5098Z" fill="#3D5AFE"/>
</svg>
