<svg width="25" height="25" viewBox="0 0 25 25" fill="none" xmlns="http://www.w3.org/2000/svg">
<path fill-rule="evenodd" clip-rule="evenodd" d="M17.6452 8.26088C17.9398 7.97626 18.3345 7.81876 18.7442 7.82232C19.1539 7.82588 19.5458 7.99021 19.8355 8.27991C20.1252 8.56961 20.2895 8.96151 20.2931 9.37119C20.2966 9.78087 20.1391 10.1756 19.8545 10.4703L13.6045 16.7203C13.3115 17.0132 12.9142 17.1777 12.4998 17.1777C12.0855 17.1777 11.6882 17.0132 11.3952 16.7203L5.14515 10.4703C4.86053 10.1756 4.70304 9.78087 4.7066 9.37119C4.71016 8.96151 4.87449 8.56961 5.16419 8.27991C5.45389 7.99021 5.84578 7.82588 6.25547 7.82232C6.66515 7.81876 7.05984 7.97626 7.35453 8.26088L12.4998 13.4062L17.6452 8.26088Z" fill="#536DFE"/>
</svg>
