<svg width="27" height="27" viewBox="0 0 27 27" fill="none" xmlns="http://www.w3.org/2000/svg">
<path fill-rule="evenodd" clip-rule="evenodd" d="M8.34909 17.7328C8.05403 18.017 7.65913 18.174 7.24945 18.1699C6.83977 18.1658 6.4481 18.0009 6.15878 17.7108C5.86946 17.4207 5.70565 17.0286 5.70264 16.619C5.69962 16.2093 5.85763 15.8148 6.14264 15.5205L12.4009 9.27874C12.6943 8.9862 13.0919 8.82217 13.5062 8.82272C13.9205 8.82326 14.3176 8.98835 14.6103 9.28166L20.852 15.5399C21.1362 15.835 21.2932 16.2299 21.2891 16.6396C21.285 17.0492 21.1202 17.4409 20.8301 17.7302C20.54 18.0195 20.1479 18.1834 19.7382 18.1864C19.3285 18.1894 18.934 18.0314 18.6397 17.7464L13.5012 12.5943L8.34909 17.7328Z" fill="#536DFE"/>
</svg>
