<svg width="24" height="24" viewBox="0 0 24 24" fill="none" xmlns="http://www.w3.org/2000/svg">
<path fill-rule="evenodd" clip-rule="evenodd" d="M17.1771 0.333496C17.9409 0.333496 18.6732 0.638486 19.208 1.17749L22.8257 4.7952C23.3643 5.33383 23.6669 6.06436 23.6669 6.82609C23.6669 7.58782 23.3643 8.31835 22.8257 8.85697L9.61725 22.0612C8.80236 23.0012 7.64721 23.5788 6.32386 23.6695H0.333496V22.5029L0.337285 17.5853C0.436674 16.3551 1.00861 15.2112 1.88108 14.4425L15.1448 1.1789C15.6826 0.637797 16.4141 0.333496 17.1771 0.333496ZM6.24145 21.3391C6.86471 21.295 7.44487 21.005 7.91073 20.4721L16.733 11.6498L12.3529 7.26955L3.47892 16.1414C3.00625 16.5594 2.71383 17.1443 2.6668 17.6793V21.3369L6.24145 21.3391ZM14.003 5.61983L18.3829 9.99991L21.1757 7.20707C21.2768 7.10603 21.3335 6.96899 21.3335 6.8261C21.3335 6.68321 21.2768 6.54618 21.1757 6.44514L17.5548 2.82418C17.4549 2.72348 17.3189 2.66684 17.177 2.66684C17.0352 2.66684 16.8992 2.72348 16.7993 2.82418L14.003 5.61983Z" fill="#536DFE"/>
</svg>
