<svg width="152" height="150" viewBox="0 0 152 150" fill="none" xmlns="http://www.w3.org/2000/svg">
<path d="M40.7103 60.5769C40.7103 58.8653 41.222 57.1922 42.1805 55.7691C43.1391 54.346 44.5015 53.2368 46.0956 52.5818C47.6896 51.9268 49.4436 51.7554 51.1359 52.0893C52.8281 52.4233 54.3825 53.2475 55.6025 54.4577C56.8225 55.668 57.6534 57.2099 57.99 58.8886C58.3266 60.5673 58.1538 62.3073 57.4935 63.8886C56.8333 65.4699 55.7151 66.8214 54.2805 67.7723C52.8459 68.7232 51.1593 69.2308 49.434 69.2308C47.1203 69.2308 44.9014 68.319 43.2654 66.6961C41.6294 65.0732 40.7103 62.8721 40.7103 60.5769ZM101.776 69.2308C103.501 69.2308 105.188 68.7232 106.622 67.7723C108.057 66.8214 109.175 65.4699 109.835 63.8886C110.496 62.3073 110.668 60.5673 110.332 58.8886C109.995 57.2099 109.164 55.668 107.944 54.4577C106.724 53.2475 105.17 52.4233 103.478 52.0893C101.785 51.7554 100.031 51.9268 98.4374 52.5818C96.8433 53.2368 95.4809 54.346 94.5223 55.7691C93.5638 57.1922 93.0521 58.8653 93.0521 60.5769C93.0521 62.8721 93.9712 65.0732 95.6072 66.6961C97.2432 68.319 99.4621 69.2308 101.776 69.2308ZM151.21 75C151.21 89.8336 146.776 104.334 138.468 116.668C130.16 129.001 118.353 138.614 104.538 144.291C90.7226 149.967 75.521 151.453 60.8551 148.559C46.1892 145.665 32.7177 138.522 22.1442 128.033C11.5706 117.544 4.36999 104.18 1.45276 89.6318C-1.46447 75.0832 0.0327584 60.0032 5.75511 46.2987C11.4775 32.5943 21.1679 20.8809 33.6011 12.6398C46.0342 4.39867 60.6516 0 75.6049 0C95.6495 0.0225227 114.867 7.93152 129.04 21.9919C143.214 36.0522 151.187 55.1157 151.21 75ZM139.578 75C139.578 62.4485 135.826 50.1788 128.797 39.7426C121.767 29.3065 111.776 21.1724 100.086 16.3692C88.3968 11.5659 75.5339 10.3092 63.1243 12.7579C50.7147 15.2065 39.3157 21.2507 30.3689 30.1259C21.4221 39.0012 15.3292 50.3089 12.8608 62.6193C10.3923 74.9296 11.6592 87.6896 16.5012 99.2857C21.3432 110.882 29.5428 120.793 40.0632 127.766C50.5835 134.74 62.9521 138.462 75.6049 138.462C92.5657 138.442 108.826 131.75 120.82 119.853C132.813 107.956 139.559 91.8252 139.578 75ZM104.391 98.3661C99.9743 93.9889 94.602 90.6775 88.6894 88.6879C82.7769 86.6983 76.4824 86.0838 70.2923 86.8917C64.1021 87.6996 58.1821 89.9083 52.9895 93.3473C47.7969 96.7862 43.4708 101.363 40.3454 106.725C39.9629 107.381 39.7144 108.105 39.614 108.856C39.5136 109.607 39.5633 110.37 39.7603 111.102C39.9572 111.834 40.2976 112.521 40.762 113.122C41.2264 113.724 41.8056 114.228 42.4667 114.608C43.1277 114.987 43.8577 115.234 44.6148 115.333C45.3719 115.433 46.1414 115.384 46.8793 115.188C47.6172 114.993 48.309 114.655 48.9154 114.195C49.5217 113.734 50.0307 113.159 50.4132 112.504C53.587 107.065 58.4565 102.796 64.2881 100.341C69.6182 98.1048 75.5002 97.4986 81.18 98.6004C86.8597 99.7021 92.0783 102.462 96.1665 106.525C97.9658 108.31 99.5226 110.319 100.797 112.504C101.57 113.828 102.841 114.794 104.331 115.189C105.821 115.583 107.409 115.375 108.744 114.609C110.079 113.842 111.053 112.581 111.451 111.103C111.848 109.625 111.638 108.05 110.866 106.726C109.084 103.672 106.907 100.861 104.391 98.3661Z" fill="#E5E8F2"/>
</svg>
