<svg width="28" height="28" viewBox="0 0 28 28" fill="none" xmlns="http://www.w3.org/2000/svg">
<path opacity="0.35" d="M21 24.5H7C5.06683 24.5 3.5 22.9332 3.5 21V7C3.5 5.06683 5.06683 3.5 7 3.5H21C22.9332 3.5 24.5 5.06683 24.5 7V21C24.5 22.9332 22.9332 24.5 21 24.5Z" fill="#333333"/>
<path d="M24.5 17.5V21C24.5 22.9332 22.9332 24.5 21 24.5H7C5.06683 24.5 3.5 22.9332 3.5 21V17.5H8.56567C9.50017 17.5 10.4113 18.0028 10.7742 18.8638C11.305 20.1203 12.5475 21 14 21C15.4525 21 16.695 20.1203 17.2258 18.8638C17.5887 18.0028 18.4987 17.5 19.4343 17.5H24.5Z" fill="#333333"/>
</svg>
