<svg width="139" height="40" viewBox="0 0 139 40" fill="none" xmlns="http://www.w3.org/2000/svg">
<path opacity="0.35" fill-rule="evenodd" clip-rule="evenodd" d="M27.3407 9.26801L30.379 14.823C30.6857 15.383 31.144 15.8413 31.704 16.148L37.259 19.1863C38.5057 19.868 38.5057 21.658 37.259 22.3397L31.704 25.378C31.144 25.6847 30.6857 26.143 30.379 26.703L27.3407 32.258C26.659 33.5047 24.869 33.5047 24.1873 32.258L21.149 26.703C20.8423 26.143 20.384 25.6847 19.824 25.378L14.269 22.3397C13.0223 21.658 13.0223 19.868 14.269 19.1863L19.824 16.148C20.384 15.8413 20.8423 15.383 21.149 14.823L24.1873 9.26801C24.869 8.02134 26.659 8.02134 27.3407 9.26801Z" fill="#3D5AFE"/>
<path fill-rule="evenodd" clip-rule="evenodd" d="M11.3658 4.23176L12.4591 6.76342C12.6091 7.11176 12.8874 7.39009 13.2358 7.54009L15.7674 8.63342C16.9658 9.15009 16.9658 10.8501 15.7674 11.3684L13.2358 12.4601C12.8874 12.6101 12.6091 12.8884 12.4591 13.2368L11.3658 15.7684C10.8491 16.9668 9.14911 16.9668 8.63078 15.7684L7.53911 13.2368C7.38911 12.8884 7.11078 12.6101 6.76245 12.4601L4.23078 11.3668C3.03245 10.8501 3.03245 9.15009 4.23078 8.63176L6.76245 7.53842C7.11078 7.38842 7.38911 7.11009 7.53911 6.76176L8.63245 4.23176C9.14911 3.03342 10.8491 3.03342 11.3658 4.23176Z" fill="#3D5AFE"/>
<path fill-rule="evenodd" clip-rule="evenodd" d="M7.69143 25.6738L8.51143 27.5721C8.62476 27.8337 8.8331 28.0421 9.09476 28.1554L10.9931 28.9754C11.8914 29.3638 11.8914 30.6388 10.9931 31.0254L9.09476 31.8454C8.8331 31.9588 8.62476 32.1671 8.51143 32.4288L7.69143 34.3271C7.3031 35.2254 6.0281 35.2254 5.64143 34.3271L4.82143 32.4288C4.7081 32.1671 4.49977 31.9588 4.2381 31.8454L2.33977 31.0254C1.44143 30.6371 1.44143 29.3621 2.33977 28.9754L4.2381 28.1554C4.49977 28.0421 4.7081 27.8337 4.82143 27.5721L5.64143 25.6738C6.02977 24.7754 7.3031 24.7754 7.69143 25.6738Z" fill="#3D5AFE"/>
<path d="M53.832 27.18C52.812 27.18 51.87 27.054 51.006 26.802C50.154 26.538 49.422 26.178 48.81 25.722L49.53 23.904C49.938 24.192 50.364 24.438 50.808 24.642C51.252 24.834 51.726 24.984 52.23 25.092C52.734 25.188 53.268 25.236 53.832 25.236C54.78 25.236 55.464 25.08 55.884 24.768C56.304 24.456 56.514 24.048 56.514 23.544C56.514 23.1 56.37 22.764 56.082 22.536C55.794 22.296 55.278 22.098 54.534 21.942L52.5 21.528C51.336 21.288 50.466 20.886 49.89 20.322C49.314 19.758 49.026 19.002 49.026 18.054C49.026 17.262 49.236 16.572 49.656 15.984C50.076 15.396 50.664 14.94 51.42 14.616C52.176 14.292 53.058 14.13 54.066 14.13C54.966 14.13 55.8 14.262 56.568 14.526C57.336 14.778 57.978 15.144 58.494 15.624L57.774 17.352C57.258 16.92 56.694 16.602 56.082 16.398C55.47 16.182 54.786 16.074 54.03 16.074C53.178 16.074 52.512 16.242 52.032 16.578C51.564 16.902 51.33 17.352 51.33 17.928C51.33 18.372 51.474 18.726 51.762 18.99C52.062 19.254 52.566 19.458 53.274 19.602L55.29 19.998C56.49 20.238 57.378 20.634 57.954 21.186C58.53 21.726 58.818 22.458 58.818 23.382C58.818 24.138 58.614 24.804 58.206 25.38C57.798 25.944 57.222 26.388 56.478 26.712C55.734 27.024 54.852 27.18 53.832 27.18ZM65.0016 27.18C64.0656 27.18 63.2436 26.988 62.5356 26.604C61.8396 26.22 61.2996 25.674 60.9156 24.966C60.5316 24.246 60.3396 23.394 60.3396 22.41C60.3396 21.426 60.5316 20.586 60.9156 19.89C61.3116 19.194 61.8576 18.66 62.5536 18.288C63.2496 17.916 64.0656 17.73 65.0016 17.73C65.6016 17.73 66.1836 17.826 66.7476 18.018C67.3236 18.198 67.7916 18.462 68.1516 18.81L67.4676 20.376C67.1436 20.076 66.7776 19.854 66.3696 19.71C65.9736 19.554 65.5836 19.476 65.1996 19.476C64.3956 19.476 63.7656 19.728 63.3096 20.232C62.8656 20.736 62.6436 21.468 62.6436 22.428C62.6436 23.388 62.8656 24.126 63.3096 24.642C63.7656 25.158 64.3956 25.416 65.1996 25.416C65.5716 25.416 65.9556 25.344 66.3516 25.2C66.7596 25.056 67.1316 24.834 67.4676 24.534L68.1516 26.082C67.7796 26.43 67.3056 26.7 66.7296 26.892C66.1656 27.084 65.5896 27.18 65.0016 27.18ZM73.8241 27.18C72.8881 27.18 72.0781 26.988 71.3941 26.604C70.7101 26.22 70.1761 25.674 69.7921 24.966C69.4201 24.258 69.2341 23.418 69.2341 22.446C69.2341 21.474 69.4201 20.64 69.7921 19.944C70.1761 19.236 70.7101 18.69 71.3941 18.306C72.0781 17.922 72.8881 17.73 73.8241 17.73C74.7601 17.73 75.5701 17.922 76.2541 18.306C76.9501 18.69 77.4841 19.236 77.8561 19.944C78.2401 20.64 78.4321 21.474 78.4321 22.446C78.4321 23.418 78.2401 24.258 77.8561 24.966C77.4841 25.674 76.9501 26.22 76.2541 26.604C75.5701 26.988 74.7601 27.18 73.8241 27.18ZM73.8241 25.452C74.5321 25.452 75.0961 25.206 75.5161 24.714C75.9361 24.21 76.1461 23.454 76.1461 22.446C76.1461 21.438 75.9361 20.688 75.5161 20.196C75.0961 19.704 74.5321 19.458 73.8241 19.458C73.1161 19.458 72.5521 19.704 72.1321 20.196C71.7121 20.688 71.5021 21.438 71.5021 22.446C71.5021 23.454 71.7121 24.21 72.1321 24.714C72.5521 25.206 73.1161 25.452 73.8241 25.452ZM80.3544 27V20.232C80.3544 19.848 80.3424 19.458 80.3184 19.062C80.3064 18.666 80.2764 18.282 80.2284 17.91H82.4064L82.6584 20.394H82.2984C82.4184 19.794 82.6164 19.296 82.8924 18.9C83.1804 18.504 83.5284 18.21 83.9364 18.018C84.3444 17.826 84.7884 17.73 85.2684 17.73C85.4844 17.73 85.6584 17.742 85.7904 17.766C85.9224 17.778 86.0544 17.808 86.1864 17.856L86.1684 19.836C85.9404 19.74 85.7424 19.68 85.5744 19.656C85.4184 19.632 85.2204 19.62 84.9804 19.62C84.4644 19.62 84.0264 19.728 83.6664 19.944C83.3184 20.16 83.0544 20.46 82.8744 20.844C82.7064 21.228 82.6224 21.666 82.6224 22.158V27H80.3544ZM87.4388 27V20.178C87.4388 19.806 87.4268 19.428 87.4028 19.044C87.3788 18.66 87.3428 18.282 87.2948 17.91H89.4728L89.6528 19.71H89.4368C89.6888 19.086 90.0728 18.6 90.5888 18.252C91.1168 17.904 91.7408 17.73 92.4608 17.73C93.1808 17.73 93.7748 17.904 94.2428 18.252C94.7228 18.588 95.0588 19.116 95.2508 19.836H94.9628C95.2148 19.188 95.6288 18.678 96.2048 18.306C96.7808 17.922 97.4408 17.73 98.1848 17.73C99.2048 17.73 99.9668 18.03 100.471 18.63C100.975 19.23 101.227 20.166 101.227 21.438V27H98.9768V21.528C98.9768 20.808 98.8568 20.292 98.6168 19.98C98.3768 19.656 97.9928 19.494 97.4648 19.494C96.8408 19.494 96.3488 19.716 95.9888 20.16C95.6288 20.592 95.4488 21.18 95.4488 21.924V27H93.1988V21.528C93.1988 20.808 93.0788 20.292 92.8388 19.98C92.5988 19.656 92.2148 19.494 91.6868 19.494C91.0628 19.494 90.5708 19.716 90.2108 20.16C89.8628 20.592 89.6888 21.18 89.6888 21.924V27H87.4388ZM108.748 27V14.31H111.07V25.038H117.046V27H108.748ZM118.64 27V17.91H120.89V27H118.64ZM118.514 16.2V14.004H121.016V16.2H118.514ZM127.221 27.18C126.141 27.18 125.325 26.898 124.773 26.334C124.221 25.77 123.945 24.924 123.945 23.796V19.602H122.199V17.91H123.945V15.588L126.195 15.012V17.91H128.625V19.602H126.195V23.652C126.195 24.276 126.315 24.714 126.555 24.966C126.795 25.218 127.125 25.344 127.545 25.344C127.773 25.344 127.965 25.326 128.121 25.29C128.289 25.254 128.451 25.206 128.607 25.146V26.928C128.403 27.012 128.175 27.072 127.923 27.108C127.683 27.156 127.449 27.18 127.221 27.18ZM134.458 27.18C132.934 27.18 131.74 26.76 130.876 25.92C130.012 25.08 129.58 23.928 129.58 22.464C129.58 21.516 129.766 20.688 130.138 19.98C130.51 19.272 131.026 18.72 131.686 18.324C132.358 17.928 133.138 17.73 134.026 17.73C134.902 17.73 135.634 17.916 136.222 18.288C136.81 18.66 137.254 19.182 137.554 19.854C137.866 20.526 138.022 21.312 138.022 22.212V22.806H131.398V21.618H136.42L136.114 21.87C136.114 21.03 135.934 20.388 135.574 19.944C135.226 19.5 134.716 19.278 134.044 19.278C133.3 19.278 132.724 19.542 132.316 20.07C131.92 20.598 131.722 21.336 131.722 22.284V22.518C131.722 23.502 131.962 24.24 132.442 24.732C132.934 25.212 133.624 25.452 134.512 25.452C135.028 25.452 135.508 25.386 135.952 25.254C136.408 25.11 136.84 24.882 137.248 24.57L137.914 26.082C137.482 26.43 136.966 26.7 136.366 26.892C135.766 27.084 135.13 27.18 134.458 27.18Z" fill="#3D5AFE"/>
</svg>
